<?xml version="1.0" encoding="UTF-8" standalone="no"?>
<!-- Created with Inkscape (http://www.inkscape.org/) -->

<svg
   version="1.1"
   id="svg242"
   width="134.39999"
   height="134.40001"
   viewBox="0 0 134.39999 134.40001"
   xmlns="http://www.w3.org/2000/svg"
   xmlns:svg="http://www.w3.org/2000/svg">
  <defs
     id="defs246" />
  <g
     id="g248"
     transform="translate(-12.518012,-13.364067)">
    <path
       style="fill:#80ffba;fill-opacity:1;stroke-width:0.32"
       d="m 69.463532,147.04407 c -0.008,-0.396 -0.0143,-4.28997 -0.014,-8.65326 l 3.2e-4,-7.93327 -0.8128,-0.30903 c -0.44704,-0.16996 -0.94471,-0.22749 -1.10594,-0.12784 -0.16123,0.0996 -0.29315,0.0527 -0.29315,-0.10438 0,-0.15706 -0.18,-0.30536 -0.4,-0.32957 -1.16546,-0.12823 -2.12097,-0.37874 -3.19847,-0.83854 -0.65916,-0.28128 -1.23983,-0.47378 -1.29037,-0.42777 -0.25831,0.23516 -8.03744,-3.3943 -8.95116,-4.17627 -0.308,-0.2636 -0.56,-0.358 -0.56,-0.2098 0,0.14821 -0.432,-0.14441 -0.96,-0.65027 -0.528,-0.50586 -0.96,-0.80739 -0.96,-0.67007 0,0.13731 -0.684,-0.31555 -1.52,-1.00637 -0.836,-0.69083 -1.76939,-1.34672 -2.07421,-1.45754 -0.40284,-0.14646 -2.26703,1.23731 -6.82519,5.06625 -3.44899,2.89725 -6.31789,5.26773 -6.37528,5.26773 -0.0574,0 -2.6622,-3.06 -5.78846,-6.8 -3.12625,-3.74 -5.8807,-7.03258 -6.12099,-7.31684 -0.38723,-0.45809 0.31004,-1.1423 6.13365,-6.01886 3.61379,-3.02612 6.57053,-5.57269 6.57053,-5.65906 0,-0.0864 -0.23084,-0.60342 -0.51298,-1.14902 -0.7995,-1.54606 -2.38554,-5.452673 -2.56006,-6.305726 -0.0866,-0.423229 -0.30921,-1.053126 -0.49473,-1.399773 -0.29881,-0.558313 -0.51778,-1.464707 -0.65488,-2.710723 -0.0242,-0.22 -0.12801,-0.400102 -0.23068,-0.400227 -0.10267,-1.22e-4 -0.21755,-0.324122 -0.25529,-0.72 -0.0377,-0.395875 -0.13473,-1.007773 -0.21552,-1.359773 -0.0808,-0.352 -0.15791,-0.74023 -0.17137,-0.862733 -0.0135,-0.122505 -3.15649,-0.223613 -6.98449,-0.224688 -3.828,-9.6e-4 -7.716,-0.0088 -8.64,-0.01725 l -1.68,-0.01533 v -8.96 -8.96 l 1.68,-0.01533 c 0.924,-0.0084 4.812,-0.01619 8.64,-0.01728 3.828,-9.6e-4 6.97102,-0.102182 6.98449,-0.224688 0.0135,-0.122502 0.0906,-0.510733 0.17137,-0.862733 0.0808,-0.352 0.17777,-0.963897 0.21552,-1.359773 0.0378,-0.395878 0.15262,-0.719878 0.25529,-0.72 0.10267,-1.24e-4 0.20647,-0.180227 0.23068,-0.400227 0.1371,-1.246016 0.35607,-2.152409 0.65488,-2.710723 0.18552,-0.346646 0.40815,-0.976544 0.49473,-1.399773 0.17452,-0.853053 1.76056,-4.759661 2.56007,-6.305728 0.28213,-0.545566 0.51297,-1.062625 0.51297,-1.14899 0,-0.08637 -2.95674,-2.632937 -6.57053,-5.659053 -5.82361,-4.87656 -6.52087,-5.560774 -6.13365,-6.01886 0.24029,-0.284263 2.99474,-3.576842 6.121,-7.316842 3.12625,-3.74 5.73106,-6.8 5.78845,-6.8 0.0574,0 2.92629,2.37048 6.37533,5.267734 4.55817,3.828938 6.42236,5.212701 6.82519,5.066244 0.30482,-0.11082 1.23821,-0.766711 2.07421,-1.457533 0.836,-0.690823 1.52,-1.14369 1.52,-1.006375 0,0.137319 0.432,-0.164214 0.96,-0.67007 0.528,-0.505856 0.96,-0.79848 0.96,-0.650272 0,0.148205 0.252,0.0538 0.56,-0.209795 0.91372,-0.781975 8.69286,-4.411431 8.95117,-4.176275 0.0505,0.04601 0.6312,-0.146487 1.29036,-0.42777 1.0775,-0.459798 2.03301,-0.710304 3.19847,-0.838541 0.22,-0.02419 0.4,-0.172512 0.4,-0.329565 0,-0.157056 0.13192,-0.204025 0.29315,-0.104377 0.16123,0.09964 0.65891,0.04211 1.10595,-0.12785 l 0.81279,-0.309027 -3.2e-4,-7.933263 c -2.7e-4,-4.363296 0.006,-8.257265 0.014,-8.653265 l 0.0144,-0.72 h 9.6 9.6 l 0.0153,1.68 c 0.008,0.924 0.0162,4.812 0.0173,8.64 9.6e-4,3.828 0.10219,6.971018 0.22469,6.984483 0.1225,0.01347 0.51074,0.09058 0.86274,0.171373 0.352,0.08079 0.96389,0.17777 1.35977,0.215514 0.39588,0.03775 0.71988,0.15263 0.72,0.255296 1.2e-4,0.102668 0.18023,0.206473 0.40023,0.230681 1.24601,0.137101 2.1524,0.356074 2.71072,0.654874 0.34664,0.18552 0.97654,0.408784 1.39977,0.496141 0.42323,0.08736 1.12951,0.233846 1.56951,0.325536 1.016187,0.211756 7.335788,3.30591 8.079998,3.956067 0.308,0.269075 0.56,0.367968 0.56,0.219763 0,-0.148208 0.432,0.144416 0.96,0.650272 0.528,0.505856 0.96,0.803306 0.96,0.660998 0,-0.142307 0.77896,0.406752 1.73103,1.220132 0.95207,0.813379 1.8789,1.47887 2.05961,1.47887 0.18072,0 3.15709,-2.376 6.61416,-5.28 3.45707,-2.904 6.33254,-5.28 6.38993,-5.28 0.0574,0 2.6622,3.06 5.78845,6.8 3.12626,3.74 5.88071,7.032579 6.121,7.316842 0.38722,0.458086 -0.31004,1.1423 -6.13365,6.01886 -3.61379,3.026116 -6.57053,5.572688 -6.57053,5.659053 0,0.08637 0.23084,0.603424 0.51298,1.149021 0.7995,1.546067 2.38555,5.452675 2.56007,6.305728 0.0866,0.423229 0.30921,1.053126 0.49473,1.399773 0.2988,0.558313 0.51777,1.464707 0.65487,2.710723 0.0242,0.22 0.12802,0.400102 0.23068,0.400227 0.10267,1.22e-4 0.21755,0.324122 0.2553,0.72 0.0377,0.395875 0.13473,1.007773 0.21551,1.359773 0.0808,0.352 0.15791,0.751904 0.17138,0.888678 0.0135,0.136772 3.66048,0.238164 8.10448,0.225309 4.444,-0.01286 8.332,-0.01677 8.64,-0.0087 0.51965,0.01363 0.56,0.660288 0.56,8.974691 0,8.314404 -0.0404,8.96106 -0.56,8.974692 -0.308,0.0081 -4.196,0.0042 -8.64,-0.0087 -4.444,-0.01286 -8.09102,0.08854 -8.10448,0.225308 -0.0135,0.136775 -0.0906,0.536679 -0.17138,0.888679 -0.0808,0.352 -0.17777,0.963897 -0.21551,1.359773 -0.0378,0.395878 -0.15263,0.719878 -0.2553,0.72 -0.10266,1.24e-4 -0.20647,0.180227 -0.23068,0.400227 -0.1371,1.246016 -0.35607,2.152409 -0.65487,2.710723 -0.18552,0.346646 -0.40815,0.976544 -0.49473,1.399773 -0.17452,0.853053 -1.76057,4.75966 -2.56007,6.30573 -0.28214,0.54559 -0.51298,1.06265 -0.51298,1.14902 0,0.0864 2.95674,2.63294 6.57054,5.65905 5.8236,4.87656 6.52087,5.56077 6.13364,6.01886 -0.24029,0.28426 -2.99473,3.57684 -6.12099,7.31684 -3.12626,3.74 -5.73106,6.8 -5.78846,6.8 -0.0574,0 -2.93286,-2.376 -6.38993,-5.28 -3.45707,-2.904 -6.43344,-5.28 -6.61415,-5.28 -0.18072,0 -1.10754,0.66549 -2.05961,1.47887 -0.95207,0.81338 -1.73104,1.36244 -1.73104,1.22013 0,-0.1423 -0.432,0.15515 -0.96,0.661 -0.528,0.50586 -0.96,0.79848 -0.96,0.65027 0,-0.1482 -0.252,-0.0493 -0.56,0.21977 -0.74421,0.65015 -7.063808,3.74431 -8.079998,3.95607 -0.44,0.0917 -1.14628,0.23817 -1.56951,0.32553 -0.42322,0.0874 -1.05312,0.31062 -1.39977,0.49614 -0.55831,0.2988 -1.46471,0.51777 -2.71072,0.65488 -0.22,0.0242 -0.4001,0.12801 -0.40023,0.23068 -1.2e-4,0.10266 -0.32412,0.21755 -0.72,0.25529 -0.39587,0.0377 -1.00777,0.13473 -1.35977,0.21552 -0.352,0.0808 -0.74023,0.1579 -0.86273,0.17137 -0.12251,0.0135 -0.22362,3.15648 -0.22469,6.98448 -9.6e-4,3.828 -0.009,7.716 -0.0173,8.64 l -0.0153,1.68005 h -9.6 -9.6 l -0.0144,-0.72 z m 13.45571,-32.68502 c 1.6713,-0.10151 3.93044,-0.45919 5.02031,-0.79486 1.08986,-0.33566 2.05838,-0.53349 2.15226,-0.43961 0.0939,0.0939 0.4123,-0.0298 0.7076,-0.27491 0.29531,-0.24508 0.76679,-0.45767 1.04774,-0.47241 0.28095,-0.0147 0.94281,-0.21801 1.47081,-0.45168 0.528,-0.23367 1.068,-0.40161 1.2,-0.37318 0.132,0.0284 0.24,-0.0683 0.24,-0.215 0,-0.14666 0.18283,-0.26666 0.40627,-0.26666 0.55169,0 3.113734,-1.71812 3.113734,-2.08808 0,-0.163 0.13855,-0.21073 0.307888,-0.10607 0.169338,0.10465 0.91007,-0.39412 1.646066,-1.10838 0.73601,-0.71427 1.40424,-1.23262 1.48496,-1.1519 0.0807,0.0807 0.93301,-0.78001 1.89397,-1.91274 0.96096,-1.13272 1.88218,-2.0595 2.04716,-2.0595 0.16498,0 0.29996,-0.16447 0.29996,-0.3655 0,-0.20102 0.61463,-1.10102 1.36584,-2 0.75121,-0.898972 1.57594,-2.066502 1.83274,-2.594502 0.25679,-0.528 0.79597,-1.5 1.19818,-2.16 0.40219,-0.66 0.63983,-1.2 0.52807,-1.2 -0.11175,0 -0.006,-0.238131 0.23599,-0.529181 0.24155,-0.291053 0.43918,-0.772918 0.43918,-1.070819 0,-0.297901 0.16037,-0.743766 0.35638,-0.990819 0.19601,-0.24705 0.3536,-0.665181 0.3502,-0.929181 -0.003,-0.264 0.25149,-1.344 0.56641,-2.4 0.33825,-1.134224 0.58781,-3.06503 0.60979,-4.717814 0.0205,-1.538797 0.1407,-2.798797 0.26718,-2.8 0.12647,-0.0013 0.17313,-0.182186 0.10368,-0.402186 -0.0694,-0.22 -0.20681,-1.696 -0.30525,-3.28 -0.0984,-1.584 -0.45339,-3.771712 -0.78878,-4.861581 -0.33538,-1.089869 -0.53298,-2.058387 -0.4391,-2.152265 0.0939,-0.09388 -0.0298,-0.412301 -0.27491,-0.707604 -0.24508,-0.295302 -0.4456,-0.780649 -0.4456,-1.07855 0,-0.297901 -0.19763,-0.779766 -0.43918,-1.070819 -0.24155,-0.29105 -0.34774,-0.529181 -0.23599,-0.529181 0.11176,0 -0.12588,-0.54 -0.52807,-1.2 -0.40221,-0.66 -0.94139,-1.632 -1.19818,-2.16 -0.2568,-0.528 -1.08153,-1.695526 -1.83274,-2.594499 -0.75121,-0.898976 -1.36584,-1.798976 -1.36584,-2 0,-0.201027 -0.13498,-0.365501 -0.29996,-0.365501 -0.16498,0 -1.0862,-0.926778 -2.04716,-2.059504 -0.96096,-1.132726 -1.81325,-1.993459 -1.89397,-1.912736 -0.0807,0.08072 -0.74895,-0.437632 -1.48496,-1.151898 -0.735996,-0.714262 -1.476728,-1.213033 -1.646066,-1.108377 -0.169338,0.104659 -0.307888,0.05692 -0.307888,-0.106077 0,-0.369958 -2.562044,-2.088074 -3.113734,-2.088074 -0.22344,0 -0.40627,-0.12 -0.40627,-0.266668 0,-0.146666 -0.108,-0.243412 -0.24,-0.214992 -0.132,0.02842 -0.672,-0.139514 -1.2,-0.373184 -0.528,-0.233674 -1.18986,-0.436928 -1.47081,-0.451677 -0.28095,-0.01475 -0.75243,-0.227335 -1.04774,-0.472413 -0.2953,-0.245082 -0.61372,-0.36879 -0.7076,-0.274912 -0.0939,0.09388 -1.0624,-0.102509 -2.15226,-0.436413 -2.23672,-0.685264 -4.68565,-0.928317 -9.34159,-0.927149 -3.9746,9.6e-4 -10.0624,1.118944 -10.57055,1.941143 -0.10651,0.172355 -0.31843,0.236265 -0.47091,0.142022 -0.15249,-0.09424 -0.77675,0.109203 -1.38724,0.452099 -0.6105,0.342896 -1.19579,0.537652 -1.30065,0.432794 -0.10485,-0.104858 -0.19065,-0.04665 -0.19065,0.12935 0,0.176 -0.18282,0.32 -0.40626,0.32 -0.55169,0 -3.11374,1.718116 -3.11374,2.088074 0,0.163002 -0.13855,0.210736 -0.30788,0.106077 -0.16934,-0.104656 -0.91007,0.394115 -1.64607,1.108377 -0.736,0.714266 -1.40423,1.232618 -1.48495,1.151898 -0.0807,-0.08072 -0.93301,0.78001 -1.89397,1.912736 -0.96096,1.132726 -1.88219,2.059504 -2.04716,2.059504 -0.16498,0 -0.29997,0.164474 -0.29997,0.365501 0,0.201024 -0.61462,1.101024 -1.36583,2 -0.75122,0.898973 -1.57595,2.066499 -1.83274,2.594499 -0.2568,0.528 -0.79598,1.5 -1.19818,2.16 -0.4022,0.66 -0.63983,1.2 -0.52808,1.2 0.11176,0 0.006,0.238131 -0.23598,0.529181 -0.24155,0.291053 -0.43919,0.772918 -0.43919,1.070819 0,0.297901 -0.20052,0.783248 -0.4456,1.07855 -0.24508,0.295303 -0.36879,0.613725 -0.27491,0.707604 0.0939,0.09388 -0.10222,1.062396 -0.43578,2.152265 -1.25905,4.113779 -1.25905,12.329383 0,16.443162 0.33356,1.089869 0.52966,2.058387 0.43578,2.152265 -0.0939,0.09388 0.0298,0.412301 0.27491,0.707604 0.24508,0.295302 0.4456,0.780649 0.4456,1.07855 0,0.297901 0.19764,0.779766 0.43919,1.070819 0.24155,0.29105 0.34774,0.529181 0.23598,0.529181 -0.11175,0 0.12588,0.54 0.52808,1.2 0.4022,0.66 0.94138,1.632 1.19818,2.16 0.25679,0.528 1.08152,1.69553 1.83274,2.594502 0.75121,0.89898 1.36583,1.79898 1.36583,2 0,0.20103 0.13499,0.3655 0.29997,0.3655 0.16497,0 1.0862,0.92678 2.04716,2.0595 0.96096,1.13273 1.81325,1.99346 1.89397,1.91274 0.0807,-0.0807 0.74895,0.43763 1.48495,1.1519 0.736,0.71426 1.47673,1.21303 1.64607,1.10838 0.16933,-0.10466 0.30788,-0.0569 0.30788,0.10607 0,0.36996 2.56205,2.08808 3.11374,2.08808 0.22344,0 0.40626,0.144 0.40626,0.32 0,0.176 0.0858,0.2342 0.19065,0.12935 0.10486,-0.10486 0.69015,0.0899 1.30065,0.43279 0.61049,0.3429 1.23475,0.54634 1.38724,0.4521 0.15248,-0.0942 0.36185,-0.0344 0.46527,0.13288 0.41686,0.67449 6.26457,1.89145 9.77619,2.03451 0.968,0.0394 1.83258,0.0491 1.92128,0.0215 0.0887,-0.0276 1.52871,-0.13328 3.2,-0.23479 z"
       id="path860" />
  </g>
</svg>
