<?xml version="1.0" encoding="UTF-8" standalone="no"?>
<!-- Created with Inkscape (http://www.inkscape.org/) -->

<svg
   version="1.1"
   id="svg234"
   width="835.17578"
   height="218.20543"
   viewBox="0 0 835.17578 218.20543"
   xmlns="http://www.w3.org/2000/svg"
   xmlns:svg="http://www.w3.org/2000/svg">
  <defs
     id="defs238" />
  <g
     id="g240"
     transform="translate(0.17579535,-9.7483683)">
    <path
       style="fill:#f0bb47"
       d="m 462.4582,226.57353 c -0.26346,-0.6875 -0.36184,-22.85 -0.21861,-49.25 l 0.26041,-48 7.25,-0.29381 7.25,-0.29381 v 49.54381 49.54381 h -7.03138 c -4.70296,0 -7.19002,-0.41393 -7.51042,-1.25 z M 494,220.88866 v -7.06513 h 27.52475 27.52475 l 0.97525,-2.5651 c 1.24812,-3.28281 1.27158,-21.52528 0.0319,-24.78596 l -0.94337,-2.48125 -22.30663,-0.33385 c -24.97814,-0.37382 -26.75604,-0.82129 -31.12572,-7.83384 -2.00453,-3.21692 -2.18093,-4.7941 -2.18093,-19.5 0,-14.7059 0.1764,-16.28308 2.18093,-19.5 1.19951,-1.925 3.63525,-4.3562 5.41275,-5.40268 3.66491,-2.15764 5.41021,-2.23412 42.15632,-1.84732 l 23.75,0.25 v 6.5 6.5 H 538.97525 510.9505 l -0.97525,2.5651 c -1.08567,2.85553 -1.14716,11.31468 -0.13764,18.9349 l 0.66239,5 22.5,0.5 c 25.16346,0.55919 26.97009,1.02067 31.31907,8 2.02482,3.24948 2.18093,4.75262 2.18093,21 0,16.24738 -0.15611,17.75052 -2.18093,21 -1.19951,1.925 -3.67451,4.4 -5.5,5.5 -3.09371,1.8642 -5.40697,2.0214 -34.06907,2.31513 L 494,227.95379 Z m 101.5,6.07136 c -4.53858,-1.19913 -7.38361,-3.26948 -9.8068,-7.13649 -1.92584,-3.07333 -2.23552,-5.1829 -2.54034,-17.30493 -0.27475,-10.92642 0.003,-14.87392 1.32974,-18.93169 1.5688,-4.79634 1.5689,-5.47008 10e-4,-10.45345 -1.31761,-4.18905 -1.60161,-8.2615 -1.32974,-19.0683 0.38693,-15.38015 1.63186,-18.93086 7.93939,-22.64431 3.66491,-2.15764 5.41021,-2.23412 42.15632,-1.84732 l 23.75043,0.25 v 6.5 6.5 H 628.97525 600.9505 l -1.07945,2.75 c -1.05402,2.68523 -0.4918,21.4366 0.70058,23.3659 0.30052,0.48626 13.11985,0.8841 28.48739,0.8841 H 657 v 8.5 8.5 h -27.94098 c -15.36754,0 -28.18687,0.39784 -28.48739,0.8841 -1.19238,1.9293 -1.7546,20.68067 -0.70058,23.3659 l 1.07945,2.75 H 628.97525 657 v 6.5 6.5 h -20.34638 c -11.1905,0 -24.353,0.20905 -29.25,0.46456 -4.89699,0.25551 -10.25362,0.10788 -11.90362,-0.32807 z m 76.5,-27.9761 v -28.8396 l 27.75,-0.66583 c 24.37637,-0.58488 27.90197,-0.87076 29,-2.35152 1.50604,-2.03098 1.70749,-17.96995 0.27475,-21.73834 l -0.97525,-2.5651 H 700.02475 672 v -6.5 -6.5 l 23.75,-0.25 c 36.74611,-0.3868 38.49141,-0.31032 42.15632,1.84732 1.7775,1.04648 4.21324,3.47768 5.41275,5.40268 2.01171,3.22843 2.18093,4.78027 2.18093,20 0,15.29712 -0.16154,16.75973 -2.21582,20.06273 -1.2187,1.9595 -3.32059,4.15398 -4.67086,4.87663 -1.98947,1.06472 -2.28668,1.71658 -1.56722,3.43727 0.48831,1.16785 2.06408,7.29837 3.50171,13.62337 1.43764,6.325 2.83283,12.2875 3.10043,13.25 0.452,1.62577 3.07462,1.75 36.9439,1.75 h 36.45736 l 0.97525,-2.5651 c 1.24812,-3.28281 1.27158,-21.52528 0.0319,-24.78596 l -0.94337,-2.48125 -22.30663,-0.33385 C 773.93479,183.345 772.27488,183.18325 769,181.1426 c -6.7106,-4.18153 -7.5,-6.79381 -7.5,-24.81907 0,-14.7059 0.1764,-16.28308 2.18093,-19.5 1.19951,-1.925 3.63525,-4.3562 5.41275,-5.40268 3.66491,-2.15764 5.41021,-2.23412 42.15632,-1.84732 l 23.75,0.25 v 6.5 6.5 H 806.97525 778.9505 l -0.97525,2.5651 c -1.08567,2.85553 -1.14716,11.31468 -0.13764,18.9349 l 0.66239,5 22.5,0.5 c 25.16346,0.55919 26.97009,1.02067 31.31907,8 2.02482,3.24948 2.18093,4.75262 2.18093,21 0,16.24738 -0.15611,17.75052 -2.18093,21 -1.19951,1.925 -3.67451,4.4 -5.5,5.5 -3.16744,1.90863 -5.3777,2.01356 -48.38092,2.29678 -26.51435,0.17463 -46.08009,-0.0904 -47.5357,-0.64377 -2.25964,-0.85911 -2.84539,-2.53003 -6.76465,-19.29678 -2.35994,-10.09593 -4.53259,-19.20957 -4.82812,-20.25253 -0.50777,-1.79201 -1.34057,-1.85835 -15.14152,-1.20626 -9.63367,0.45519 -14.86513,1.1006 -15.37087,1.89631 -0.42166,0.66344 -0.77356,9.86875 -0.78198,20.45625 l -0.0153,19.25 h -8 -8 z m -392,21.0795 v -7.05236 l 14.25,-0.40193 c 11.77326,-0.33207 15.24098,-0.79222 19.95163,-2.64752 7.78119,-3.06462 15.01754,-9.80655 18.82335,-17.53726 2.65187,-5.38672 3.08613,-7.37088 3.08613,-14.10082 0,-6.72994 -0.43426,-8.7141 -3.08613,-14.10082 -5.91972,-12.02466 -17.57026,-19.42379 -30.74355,-19.5249 -3.54179,-0.0272 -6.74153,0.25175 -7.11053,0.61986 -0.36899,0.3681 -0.80406,12.78251 -0.96681,27.58757 l -0.29591,26.91829 H 286.95409 280 v -35.14839 -35.1484 l 13.75,0.60903 c 21.86903,0.96865 32.38044,4.93703 44.47887,16.79216 18.70267,18.32656 18.77857,43.64637 0.18629,62.14751 C 326.42284,221.00897 315.435,225.18241 292.75,226.42012 L 280,227.11578 Z m 117.8448,5.27482 c -5.3013,-1.9498 -8.76224,-4.44818 -10.26935,-7.41321 -1.76127,-3.46507 -5.45131,-18.33426 -12.02419,-48.4521 -3.11621,-14.27892 -6.08868,-25.58576 -6.98731,-26.57874 C 367.56976,141.79563 367,139.28212 367,135.99479 v -5.17126 h 5.81291 c 5.06193,0 6.13945,0.35528 8.34052,2.75 3.39744,3.69635 3.82383,4.97066 11.29311,33.75 8.19862,31.58955 12.75748,46.73467 14.2138,47.22011 1.57896,0.52632 4.74621,-9.64135 14.84042,-47.64147 4.73676,-17.83174 9.05268,-33.24424 9.59095,-34.25 0.80521,-1.50455 2.22108,-1.82864 7.98879,-1.82864 h 7.01013 l -0.65486,3.75 c -2.05347,11.75907 -15.81753,73.7339 -17.54227,78.98684 -2.23318,6.80143 -4.68699,9.22056 -11.95316,11.78421 -5.11736,1.80551 -13.17698,1.80268 -18.09554,-0.006 z M 132.75,224.25156 c -1.5125,-0.82055 -2.74434,-2.26503 -2.73742,-3.20997 0.0282,-3.84893 10.9933,-49.58854 28.1006,-117.21806 16.92016,-66.889707 19.44721,-76.422967 21.51454,-81.163017 3.10986,-7.13043 11.42578,-12.8629596 18.59016,-12.8150196 7.18866,0.0481 15.16544,5.8618296 18.28314,13.3253296 2.95675,7.07818 35.68231,136.603097 48.04368,190.152707 1.94355,8.41945 1.82972,9.25502 -1.49504,10.97432 -6.91968,3.5783 -13.83744,0.56087 -16.32004,-7.11859 -0.86336,-2.67065 -4.10566,-15.83881 -7.20511,-29.26258 -10.73329,-46.48614 -19.51741,-82.48606 -20.32364,-83.29228 -0.67708,-0.67708 -30.83999,10.32847 -43.40206,15.83612 l -3.70118,1.62273 -7.04953,29.12014 c -3.87724,16.01608 -9.09173,37.67014 -11.58776,48.12014 -5.76476,24.13508 -5.11378,22.31779 -8.79963,24.56526 -3.75015,2.28668 -8.11911,2.41974 -11.91071,0.36277 z M 195.80244,93.908243 c 8.63366,-3.25341 16.48506,-6.22656 17.44756,-6.60699 0.9625,-0.38044 1.75,-1.55589 1.75,-2.61213 0,-2.2773 -10.9314,-45.4101 -13.96827,-55.11559 -1.16165,-3.7125 -2.47178,-6.75 -2.9114,-6.75 -0.43961,0 -1.29179,1.08089 -1.89372,2.40198 -2.72307,5.97649 -18.19795,67.85164 -18.21918,72.84802 -0.004,0.9625 0.46617,1.75 1.04501,1.75 0.57885,0 8.11635,-2.66188 16.75,-5.91529 z M 29.275727,106.16982 C 23.124832,103.9918 19.527144,100.15165 17.687029,93.800143 16.006982,88.001143 1.6691177,22.296113 0.50764965,15.073533 l -0.683445,-4.25 H 6.9368527 c 6.7573973,0 7.1625073,0.13113 8.1108853,2.62556 0.890678,2.34266 15.050805,54.16799 20.038043,73.3382 1.92762,7.40948 3.27603,10.00776 4.5385,8.74529 1.24234,-1.24235 13.20644,-44.26641 13.96209,-50.20905 0.91481,-7.19426 7.32669,-26.78111 9.56178,-29.20906 5.46751,-5.93928 14.92698,-7.8027196 22.39322,-4.41128 7.99157,3.63006 11.33799,10.06635 15.925029,30.6292 2.71768,12.1828 13.14606,51.05507 14.11906,52.62942 1.03391,1.6729 2.23201,0.82481 3.3739,-2.38828 0.63526,-1.7875 5.64635,-20.07399 11.13577,-40.63664 5.48942,-20.56265 10.42951,-38.22515 10.978,-39.25 0.82797,-1.54709 2.19288,-1.86336 8.04151,-1.86336 h 7.04427 l -0.5163,2.75 c -2.96029,15.7674 -15.38304,72.61015 -17.25246,78.94204 -2.64473,8.957887 -4.50721,11.026687 -12.44981,13.828997 -8.44985,2.98129 -20.01376,1.01521 -25.79543,-4.38568 -3.491939,-3.261957 -4.660189,-7.116177 -10.649839,-35.135357 -11.50901,-53.83842 -11.43112,-53.68991 -16.52557,-31.50536 -1.13604,4.94705 -2.21022,10.12205 -2.38707,11.5 -0.7461,5.81342 -7.95578,38.15349 -10.18748,45.6974 -1.89508,6.40604 -3.05996,8.645297 -5.34312,10.271047 -6.96723,4.9611 -17.43859,6.33551 -25.776104,3.3832 z M 266.5,106.93279 c -4.50986,-1.15061 -7.37401,-3.22692 -9.8068,-7.109257 -2.15772,-3.44338 -2.1932,-4.11473 -2.1932,-41.5 0,-52.6124396 -3.51077,-48.4999996 41.40429,-48.4999996 H 327 v 6.4999996 6.5 H 299.47525 271.9505 l -0.97525,2.5651 C 270.4193,26.850883 270,41.010963 270,58.323533 c 0,17.31256 0.4193,31.47264 0.97525,32.9349 l 0.97525,2.5651 H 290.5 309.0495 l 0.97525,-2.5651 c 1.06911,-2.81196 1.33832,-17.32519 0.36826,-19.85312 -0.92347,-2.40653 -4.5841,-1.9233 -14.53106,1.91822 -4.98446,1.925 -9.48438,3.5 -9.99983,3.5 -0.53605,0 -0.81411,-3.95706 -0.64965,-9.24522 l 0.28753,-9.24522 5,-1.15879 c 6.54168,-1.51608 29.28462,-1.67042 33.42568,-0.22684 l 3.22413,1.12394 -0.32491,19.12606 c -0.36422,21.44083 -0.99356,23.688367 -7.8249,27.945137 -3.30603,2.06006 -4.77466,2.19131 -26.5,2.36826 -12.65,0.10303 -24.35,-0.1571 -26,-0.57807 z m 147,-0.99931 c -6.52616,-3.01201 -8.4067,-5.92687 -12.11793,-18.782817 -1.87782,-6.50492 -3.58589,-13.17713 -3.7957,-14.82713 -0.75565,-5.94264 -12.71974,-48.96671 -13.96209,-50.20906 -1.26247,-1.26246 -2.61088,1.33582 -4.5385,8.7453 -4.98724,19.1702 -19.14736,70.995537 -20.03804,73.338197 -0.94838,2.49442 -1.35349,2.62556 -8.11089,2.62556 h -7.11265 l 0.68345,-4.25 c 1.16147,-7.222587 15.49933,-72.927607 17.17938,-78.726617 1.88415,-6.50352 5.4537,-10.20186 11.99918,-12.43213 8.50208,-2.8969496 18.33386,-1.5614096 25.36562,3.44566 2.28316,1.62574 3.44804,3.865 5.34312,10.27104 2.2317,7.54391 9.44138,39.88399 10.18748,45.6974 0.54778,4.26814 4.3931,20.34646 5.56311,23.26084 0.85356,2.12614 1.41419,2.51416 2.42296,1.67696 1.35389,-1.12363 3.05533,-8.122 10.92657,-44.94315 5.98965,-28.01919 7.1579,-31.87341 10.64984,-35.13537 5.78167,-5.40089 17.34558,-7.3669596 25.79543,-4.38568 7.9426,2.80231 9.80508,4.87111 12.44981,13.829 1.86942,6.33189 14.29217,63.17464 17.25246,78.942047 l 0.5163,2.75 h -7.04427 c -5.84863,0 -7.21354,-0.31628 -8.04151,-1.86337 -0.54849,-1.02484 -5.48858,-18.687337 -10.978,-39.249997 -5.48942,-20.56265 -10.50051,-38.84913 -11.13577,-40.63663 -1.14189,-3.21309 -2.33999,-4.06119 -3.3739,-2.38829 -0.973,1.57435 -11.40138,40.44662 -14.11906,52.62943 -4.58704,20.56284 -7.93346,26.999127 -15.92503,30.629187 -5.15189,2.34018 -10.95653,2.33643 -16.04137,-0.0104 z M 517,58.323533 V 9.8235334 h 7.5 7.5 V 58.323533 106.82353 h -7.5 -7.5 z"
       id="path298" />
  </g>
</svg>
