<?xml version="1.0" encoding="UTF-8" standalone="no"?>
<!-- Created with Inkscape (http://www.inkscape.org/) -->

<svg
   version="1.1"
   id="svg2983"
   width="1830.4358"
   height="300.46289"
   viewBox="0 0 1830.4358 300.4629"
   xmlns="http://www.w3.org/2000/svg"
   xmlns:svg="http://www.w3.org/2000/svg">
  <defs
     id="defs2987" />
  <path
     id="path371"
     style="fill:#836f3d;fill-opacity:1;stroke-width:0.202589"
     d="m 52.040618,0 a 3.9124428,20.184707 0 0 0 -3.60186,12.392114 8.7363632,7.9597986 0 0 0 -4.15819,3.628162 21.415477,3.6875906 0 0 0 -13.050512,3.387927 21.415477,3.6875906 0 0 0 12.789912,3.367908 8.7363632,7.9597986 0 0 0 4.33383,4.080142 3.9124428,20.184707 0 0 0 3.68682,13.513211 3.9124428,20.184707 0 0 0 3.69336,-13.519371 8.7363632,7.9597986 0 0 0 4.28318,-3.980044 21.415477,3.6875906 0 0 0 14.0439,-3.461846 21.415477,3.6875906 0 0 0 -14.29388,-3.473395 8.7363632,7.9597986 0 0 0 -4.11735,-3.537304 A 3.9124428,20.184707 0 0 0 52.040618,0 Z" />
  <path
     id="path371-3"
     style="fill:#836f3d;fill-opacity:1;stroke-width:0.202589"
     d="m 110.9031,64.492768 a 3.9124428,20.184707 0 0 0 -3.60186,12.392113 8.7363632,7.9597986 0 0 0 -4.15819,3.628162 21.415477,3.6875906 0 0 0 -13.050512,3.387927 21.415477,3.6875906 0 0 0 12.789912,3.367908 8.7363632,7.9597986 0 0 0 4.33383,4.080147 3.9124428,20.184707 0 0 0 3.68682,13.513205 3.9124428,20.184707 0 0 0 3.69336,-13.519365 8.7363632,7.9597986 0 0 0 4.28318,-3.980049 21.415477,3.6875906 0 0 0 14.04391,-3.461846 21.415477,3.6875906 0 0 0 -14.29388,-3.473395 8.7363632,7.9597986 0 0 0 -4.11736,-3.537304 3.9124428,20.184707 0 0 0 -3.60921,-12.397503 z" />
  <path
     id="path371-8"
     style="fill:#836f3d;fill-opacity:1;stroke-width:0.202589"
     d="M 20.81056,104.8621 A 3.9124428,20.184707 0 0 0 17.2087,117.25421 8.7363632,7.9597986 0 0 0 13.05051,120.88237 21.415477,3.6875906 0 0 0 0,124.2703 a 21.415477,3.6875906 0 0 0 12.78991,3.36791 8.7363632,7.9597986 0 0 0 4.33383,4.08014 3.9124428,20.184707 0 0 0 3.68682,13.51321 3.9124428,20.184707 0 0 0 3.69336,-13.51937 8.7363632,7.9597986 0 0 0 4.28318,-3.98004 21.415477,3.6875906 0 0 0 14.043898,-3.46185 21.415477,3.6875906 0 0 0 -14.293878,-3.47339 8.7363632,7.9597986 0 0 0 -4.11735,-3.53731 3.9124428,20.184707 0 0 0 -3.60921,-12.3975 z" />
  <path
     id="path371-7"
     style="fill:#836f3d;fill-opacity:1;stroke-width:0.202589"
     d="m 141.42627,145.23144 a 3.9124428,20.184707 0 0 0 -3.60187,12.39211 8.7363632,7.9597986 0 0 0 -4.15819,3.62816 21.415477,3.6875906 0 0 0 -13.05051,3.38793 21.415477,3.6875906 0 0 0 12.78991,3.36791 8.7363632,7.9597986 0 0 0 4.33383,4.08014 3.9124428,20.184707 0 0 0 3.68683,13.51321 3.9124428,20.184707 0 0 0 3.69335,-13.51937 8.7363632,7.9597986 0 0 0 4.28319,-3.98005 21.415477,3.6875906 0 0 0 14.0439,-3.46184 21.415477,3.6875906 0 0 0 -14.29388,-3.4734 8.7363632,7.9597986 0 0 0 -4.11736,-3.5373 3.9124428,20.184707 0 0 0 -3.6092,-12.3975 z" />
  <path
     id="path371-80"
     style="fill:#836f3d;fill-opacity:1;stroke-width:0.202589"
     d="m 209.3649,65.477387 a 3.9124428,20.184707 0 0 0 -3.60186,12.39211 8.7363632,7.9597986 0 0 0 -4.15819,3.62816 21.415477,3.6875906 0 0 0 -13.05051,3.38793 21.415477,3.6875906 0 0 0 12.78991,3.36791 8.7363632,7.9597986 0 0 0 4.33383,4.080138 3.9124428,20.184707 0 0 0 3.68682,13.513205 3.9124428,20.184707 0 0 0 3.69336,-13.519365 8.7363632,7.9597986 0 0 0 4.28318,-3.980048 21.415477,3.6875906 0 0 0 14.0439,-3.46184 21.415477,3.6875906 0 0 0 -14.29388,-3.4734 8.7363632,7.9597986 0 0 0 -4.11735,-3.5373 3.9124428,20.184707 0 0 0 -3.60921,-12.3975 z" />
  <path
     id="path371-4"
     style="fill:#836f3d;fill-opacity:1;stroke-width:0.202589"
     d="m 275.3343,136.86218 a 3.9124428,20.184707 0 0 0 -3.60186,12.39212 8.7363632,7.9597986 0 0 0 -4.15819,3.62816 21.415477,3.6875906 0 0 0 -13.05051,3.38792 21.415477,3.6875906 0 0 0 12.78991,3.36791 8.7363632,7.9597986 0 0 0 4.33383,4.08014 3.9124428,20.184707 0 0 0 3.68682,13.51322 3.9124428,20.184707 0 0 0 3.69336,-13.51938 8.7363632,7.9597986 0 0 0 4.28318,-3.98004 21.415477,3.6875906 0 0 0 14.0439,-3.46185 21.415477,3.6875906 0 0 0 -14.29388,-3.47339 8.7363632,7.9597986 0 0 0 -4.11735,-3.5373 3.9124428,20.184707 0 0 0 -3.60921,-12.39751 z" />
  <path
     id="path371-5"
     style="fill:#836f3d;fill-opacity:1;stroke-width:0.202589"
     d="m 339.33447,55.138897 a 3.9124428,20.184707 0 0 0 -3.60186,12.392113 8.7363632,7.9597986 0 0 0 -4.15819,3.628162 21.415477,3.6875906 0 0 0 -13.05051,3.387927 21.415477,3.6875906 0 0 0 12.78991,3.367908 8.7363632,7.9597986 0 0 0 4.33383,4.080142 3.9124428,20.184707 0 0 0 3.68682,13.513216 3.9124428,20.184707 0 0 0 3.69336,-13.519376 8.7363632,7.9597986 0 0 0 4.28318,-3.980044 21.415477,3.6875906 0 0 0 14.0439,-3.461846 21.415477,3.6875906 0 0 0 -14.29388,-3.473395 8.7363632,7.9597986 0 0 0 -4.11735,-3.537304 3.9124428,20.184707 0 0 0 -3.60921,-12.397503 z" />
  <path
     id="path371-71"
     style="fill:#836f3d;fill-opacity:1;stroke-width:0.202589"
     d="m 390.5346,139.81604 a 3.9124428,20.184707 0 0 0 -3.60186,12.39211 8.7363632,7.9597986 0 0 0 -4.15819,3.62816 21.415477,3.6875906 0 0 0 -13.05051,3.38793 21.415477,3.6875906 0 0 0 12.78991,3.36791 8.7363632,7.9597986 0 0 0 4.33383,4.08014 3.9124428,20.184707 0 0 0 3.68682,13.51321 3.9124428,20.184707 0 0 0 3.69336,-13.51937 8.7363632,7.9597986 0 0 0 4.28318,-3.98005 21.415477,3.6875906 0 0 0 14.0439,-3.46184 21.415477,3.6875906 0 0 0 -14.29388,-3.4734 8.7363632,7.9597986 0 0 0 -4.11735,-3.5373 3.9124428,20.184707 0 0 0 -3.60921,-12.3975 z" />
  <path
     id="path371-0"
     style="fill:#836f3d;fill-opacity:1;stroke-width:0.202589"
     d="m 332.93445,227.93935 a 3.9124428,20.184707 0 0 0 -3.60186,12.39211 8.7363632,7.9597986 0 0 0 -4.15819,3.62816 21.415477,3.6875906 0 0 0 -13.05051,3.38793 21.415477,3.6875906 0 0 0 12.78991,3.36791 8.7363632,7.9597986 0 0 0 4.33383,4.08014 3.9124428,20.184707 0 0 0 3.68682,13.51321 3.9124428,20.184707 0 0 0 3.69336,-13.51937 8.7363632,7.9597986 0 0 0 4.28318,-3.98005 21.415477,3.6875906 0 0 0 14.0439,-3.46184 21.415477,3.6875906 0 0 0 -14.29388,-3.4734 8.7363632,7.9597986 0 0 0 -4.11735,-3.5373 3.9124428,20.184707 0 0 0 -3.60921,-12.3975 z" />
  <path
     id="path371-6"
     style="fill:#836f3d;fill-opacity:1;stroke-width:0.202589"
     d="m 211.33413,186.09309 a 3.9124428,20.184707 0 0 0 -3.60186,12.39211 8.7363632,7.9597986 0 0 0 -4.15819,3.62816 21.415477,3.6875906 0 0 0 -13.05051,3.38793 21.415477,3.6875906 0 0 0 12.78991,3.36791 8.7363632,7.9597986 0 0 0 4.33383,4.08014 3.9124428,20.184707 0 0 0 3.68682,13.51321 3.9124428,20.184707 0 0 0 3.69336,-13.51937 8.7363632,7.9597986 0 0 0 4.28318,-3.98005 21.415477,3.6875906 0 0 0 14.0439,-3.46184 21.415477,3.6875906 0 0 0 -14.29388,-3.4734 8.7363632,7.9597986 0 0 0 -4.11735,-3.5373 3.9124428,20.184707 0 0 0 -3.60921,-12.3975 z" />
  <path
     id="path371-03"
     style="fill:#836f3d;fill-opacity:1;stroke-width:0.202589"
     d="m 120.25697,257.47789 a 3.9124428,20.184707 0 0 0 -3.60186,12.39211 8.7363632,7.9597986 0 0 0 -4.15819,3.62816 21.415477,3.6875906 0 0 0 -13.050512,3.38793 21.415477,3.6875906 0 0 0 12.789912,3.36791 8.7363632,7.9597986 0 0 0 4.33383,4.08014 3.9124428,20.184707 0 0 0 3.68682,13.51321 3.9124428,20.184707 0 0 0 3.69336,-13.51937 8.7363632,7.9597986 0 0 0 4.28318,-3.98005 21.415477,3.6875906 0 0 0 14.0439,-3.46184 21.415477,3.6875906 0 0 0 -14.29388,-3.4734 8.7363632,7.9597986 0 0 0 -4.11735,-3.5373 3.9124428,20.184707 0 0 0 -3.60921,-12.3975 z" />
  <path
     id="path371-35"
     style="fill:#836f3d;fill-opacity:1;stroke-width:0.202589"
     d="m 31.641356,183.13923 a 3.9124428,20.184707 0 0 0 -3.60186,12.39211 8.7363632,7.9597986 0 0 0 -4.15819,3.62816 21.415477,3.6875906 0 0 0 -13.050512,3.38793 21.415477,3.6875906 0 0 0 12.789912,3.36791 8.7363632,7.9597986 0 0 0 4.33383,4.08014 3.9124428,20.184707 0 0 0 3.68682,13.51321 3.9124428,20.184707 0 0 0 3.693362,-13.51937 8.7363632,7.9597986 0 0 0 4.28318,-3.98005 21.415477,3.6875906 0 0 0 14.0439,-3.46184 21.415477,3.6875906 0 0 0 -14.29388,-3.4734 8.7363632,7.9597986 0 0 0 -4.11735,-3.5373 3.9124428,20.184707 0 0 0 -3.609212,-12.3975 z" />
  <path
     id="path371-02"
     style="fill:#836f3d;fill-opacity:1;stroke-width:0.202589"
     d="m 435.33472,4.9233814 a 3.9124428,20.184707 0 0 0 -3.60186,12.3921146 8.7363632,7.9597986 0 0 0 -4.15819,3.62816 21.415477,3.6875906 0 0 0 -13.05051,3.38793 21.415477,3.6875906 0 0 0 12.78991,3.36791 8.7363632,7.9597986 0 0 0 4.33383,4.08014 3.9124428,20.184707 0 0 0 3.68682,13.51321 3.9124428,20.184707 0 0 0 3.69336,-13.51937 8.7363632,7.9597986 0 0 0 4.28318,-3.98005 21.415477,3.6875906 0 0 0 14.0439,-3.46184 21.415477,3.6875906 0 0 0 -14.29388,-3.4734 8.7363632,7.9597986 0 0 0 -4.11735,-3.5373 3.9124428,20.184707 0 0 0 -3.60921,-12.3975046 z" />
  <path
     id="path371-32"
     style="fill:#836f3d;fill-opacity:1;stroke-width:0.202589"
     d="m 496.38103,105.84672 a 3.9124428,20.184707 0 0 0 -3.60186,12.39211 8.7363632,7.9597986 0 0 0 -4.15819,3.62816 21.415477,3.6875906 0 0 0 -13.05051,3.38793 21.415477,3.6875906 0 0 0 12.78991,3.36791 8.7363632,7.9597986 0 0 0 4.33383,4.08014 3.9124428,20.184707 0 0 0 3.68682,13.51321 3.9124428,20.184707 0 0 0 3.69336,-13.51937 8.7363632,7.9597986 0 0 0 4.28318,-3.98004 21.415477,3.6875906 0 0 0 14.0439,-3.46185 21.415477,3.6875906 0 0 0 -14.29388,-3.4734 8.7363632,7.9597986 0 0 0 -4.11735,-3.5373 3.9124428,20.184707 0 0 0 -3.60921,-12.3975 z" />
  <path
     id="path371-710"
     style="fill:#836f3d;fill-opacity:1;stroke-width:0.202589"
     d="m 555.45811,221.53933 a 3.9124428,20.184707 0 0 0 -3.60186,12.39211 8.7363632,7.9597986 0 0 0 -4.15819,3.62816 21.415477,3.6875906 0 0 0 -13.05051,3.38793 21.415477,3.6875906 0 0 0 12.78991,3.36791 8.7363632,7.9597986 0 0 0 4.33383,4.08014 3.9124428,20.184707 0 0 0 3.68682,13.51321 3.9124428,20.184707 0 0 0 3.69336,-13.51937 8.7363632,7.9597986 0 0 0 4.28318,-3.98005 21.415477,3.6875906 0 0 0 14.0439,-3.46184 21.415477,3.6875906 0 0 0 -14.29388,-3.4734 8.7363632,7.9597986 0 0 0 -4.11735,-3.5373 3.9124428,20.184707 0 0 0 -3.60921,-12.3975 z" />
  <path
     id="path371-09"
     style="fill:#836f3d;fill-opacity:1;stroke-width:0.202589"
     d="m 643.58141,48.738887 a 3.9124428,20.184707 0 0 0 -3.60186,12.39211 8.7363632,7.9597986 0 0 0 -4.15819,3.62816 21.415477,3.6875906 0 0 0 -13.05051,3.38793 21.415477,3.6875906 0 0 0 12.78991,3.36791 8.7363632,7.9597986 0 0 0 4.33383,4.08014 3.9124428,20.184707 0 0 0 3.68682,13.51321 3.9124428,20.184707 0 0 0 3.69336,-13.51937 8.7363632,7.9597986 0 0 0 4.28318,-3.98005 21.415477,3.6875906 0 0 0 14.0439,-3.46184 21.415477,3.6875906 0 0 0 -14.29388,-3.4734 8.7363632,7.9597986 0 0 0 -4.11735,-3.5373 3.9124428,20.184707 0 0 0 -3.60921,-12.3975 z" />
  <path
     id="path371-717"
     style="fill:#836f3d;fill-opacity:1;stroke-width:0.202589"
     d="m 745.98168,158.52378 a 3.9124428,20.184707 0 0 0 -3.60186,12.39211 8.7363632,7.9597986 0 0 0 -4.15819,3.62816 21.415477,3.6875906 0 0 0 -13.05051,3.38793 21.415477,3.6875906 0 0 0 12.78991,3.36791 8.7363632,7.9597986 0 0 0 4.33383,4.08014 3.9124428,20.184707 0 0 0 3.68682,13.51321 3.9124428,20.184707 0 0 0 3.69336,-13.51937 8.7363632,7.9597986 0 0 0 4.28318,-3.98005 21.415477,3.6875906 0 0 0 14.0439,-3.46184 21.415477,3.6875906 0 0 0 -14.29388,-3.4734 8.7363632,7.9597986 0 0 0 -4.11735,-3.5373 3.9124428,20.184707 0 0 0 -3.60921,-12.3975 z" />
  <path
     id="path371-45"
     style="fill:#836f3d;fill-opacity:1;stroke-width:0.202589"
     d="m 815.88956,15.754179 a 3.9124428,20.184707 0 0 0 -3.60186,12.39211 8.7363632,7.9597986 0 0 0 -4.15819,3.62816 21.415477,3.6875906 0 0 0 -13.05051,3.38793 21.415477,3.6875906 0 0 0 12.78991,3.36791 8.7363632,7.9597986 0 0 0 4.33383,4.08014 3.9124428,20.184707 0 0 0 3.68682,13.51321 3.9124428,20.184707 0 0 0 3.69336,-13.51937 8.7363632,7.9597986 0 0 0 4.28318,-3.98005 21.415477,3.6875906 0 0 0 14.0439,-3.46184 21.415477,3.6875906 0 0 0 -14.29388,-3.4734 8.7363632,7.9597986 0 0 0 -4.11735,-3.5373 3.9124428,20.184707 0 0 0 -3.60921,-12.3975 z" />
  <path
     id="path371-1"
     style="fill:#836f3d;fill-opacity:1;stroke-width:0.202589"
     d="m 928.6283,102.89286 a 3.9124428,20.184707 0 0 0 -3.6018,12.39212 8.7363632,7.9597986 0 0 0 -4.1582,3.62816 21.415477,3.6875906 0 0 0 -13.0506,3.38793 21.415477,3.6875906 0 0 0 12.79,3.3679 8.7363632,7.9597986 0 0 0 4.3338,4.08015 3.9124428,20.184707 0 0 0 3.6868,13.51321 3.9124428,20.184707 0 0 0 3.6934,-13.51937 8.7363632,7.9597986 0 0 0 4.28322,-3.98005 21.415477,3.6875906 0 0 0 14.0439,-3.46184 21.415477,3.6875906 0 0 0 -14.2939,-3.4734 8.7363632,7.9597986 0 0 0 -4.11742,-3.5373 3.9124428,20.184707 0 0 0 -3.6092,-12.39751 z" />
  <path
     id="path371-30"
     style="fill:#836f3d;fill-opacity:1;stroke-width:0.202589"
     d="m 1011.9283,6.6657194 a 3.9124428,20.184707 0 0 0 -3.6019,12.3921106 8.7363632,7.9597986 0 0 0 -4.1582,3.62816 21.415477,3.6875906 0 0 0 -13.05048,3.38793 21.415477,3.6875906 0 0 0 12.78988,3.36791 8.7363632,7.9597986 0 0 0 4.3339,4.08014 3.9124428,20.184707 0 0 0 3.6868,13.51321 3.9124428,20.184707 0 0 0 3.6934,-13.51937 8.7363632,7.9597986 0 0 0 4.2831,-3.98005 21.415477,3.6875906 0 0 0 14.0439,-3.46184 21.415477,3.6875906 0 0 0 -14.2938,-3.4734 8.7363632,7.9597986 0 0 0 -4.1174,-3.5373 3.9124428,20.184707 0 0 0 -3.6092,-12.3975006 z" />
  <path
     id="path371-19"
     style="fill:#836f3d;fill-opacity:1;stroke-width:0.202589"
     d="m 1049.5246,176.54584 a 3.9124428,20.184707 0 0 0 -3.6018,12.39211 8.7363632,7.9597986 0 0 0 -4.1582,3.62816 21.415477,3.6875906 0 0 0 -13.0505,3.38793 21.415477,3.6875906 0 0 0 12.7899,3.36791 8.7363632,7.9597986 0 0 0 4.3338,4.08014 3.9124428,20.184707 0 0 0 3.6868,13.51321 3.9124428,20.184707 0 0 0 3.6934,-13.51937 8.7363632,7.9597986 0 0 0 4.2832,-3.98004 21.415477,3.6875906 0 0 0 14.0439,-3.46185 21.415477,3.6875906 0 0 0 -14.2939,-3.4734 8.7363632,7.9597986 0 0 0 -4.1174,-3.5373 3.9124428,20.184707 0 0 0 -3.6092,-12.3975 z" />
  <path
     id="path371-459"
     style="fill:#836f3d;fill-opacity:1;stroke-width:0.202589"
     d="m 911.67117,260.09344 a 3.9124428,20.184707 0 0 0 -3.6019,12.39211 8.7363632,7.9597986 0 0 0 -4.1582,3.62816 21.415477,3.6875906 0 0 0 -13.0505,3.38793 21.415477,3.6875906 0 0 0 12.7899,3.36791 8.7363632,7.9597986 0 0 0 4.3339,4.08014 3.9124428,20.184707 0 0 0 3.6868,13.51321 3.9124428,20.184707 0 0 0 3.6933,-13.51937 8.7363632,7.9597986 0 0 0 4.2832,-3.98005 21.415477,3.6875906 0 0 0 14.0439,-3.46184 21.415477,3.6875906 0 0 0 -14.2939,-3.4734 8.7363632,7.9597986 0 0 0 -4.1173,-3.5373 3.9124428,20.184707 0 0 0 -3.6092,-12.3975 z" />
  <path
     id="path371-39"
     style="fill:#836f3d;fill-opacity:1;stroke-width:0.202589"
     d="m 1173.4536,246.16885 a 3.9124428,20.184707 0 0 0 -3.6018,12.39211 8.7363632,7.9597986 0 0 0 -4.1582,3.62816 21.415477,3.6875906 0 0 0 -13.0505,3.38793 21.415477,3.6875906 0 0 0 12.7899,3.36791 8.7363632,7.9597986 0 0 0 4.3338,4.08014 3.9124428,20.184707 0 0 0 3.6868,13.51321 3.9124428,20.184707 0 0 0 3.6934,-13.51937 8.7363632,7.9597986 0 0 0 4.2832,-3.98005 21.415477,3.6875906 0 0 0 14.0439,-3.46184 21.415477,3.6875906 0 0 0 -14.2939,-3.4734 8.7363632,7.9597986 0 0 0 -4.1174,-3.5373 3.9124428,20.184707 0 0 0 -3.6092,-12.3975 z" />
  <path
     id="path371-66"
     style="fill:#836f3d;fill-opacity:1;stroke-width:0.202589"
     d="m 1170.6687,113.88514 a 3.9124428,20.184707 0 0 0 -3.6019,12.39211 8.7363632,7.9597986 0 0 0 -4.1581,3.62816 21.415477,3.6875906 0 0 0 -13.0506,3.38793 21.415477,3.6875906 0 0 0 12.7899,3.36791 8.7363632,7.9597986 0 0 0 4.3339,4.08014 3.9124428,20.184707 0 0 0 3.6868,13.51321 3.9124428,20.184707 0 0 0 3.6934,-13.51937 8.7363632,7.9597986 0 0 0 4.2831,-3.98005 21.415477,3.6875906 0 0 0 14.0439,-3.46184 21.415477,3.6875906 0 0 0 -14.2938,-3.4734 8.7363632,7.9597986 0 0 0 -4.1174,-3.5373 3.9124428,20.184707 0 0 0 -3.6092,-12.3975 z" />
  <path
     id="path371-40"
     style="fill:#836f3d;fill-opacity:1;stroke-width:0.202589"
     d="m 1263.9635,12.235551 a 3.9124428,20.184707 0 0 0 -3.6019,12.39212 8.7363632,7.9597986 0 0 0 -4.1582,3.62816 21.415477,3.6875906 0 0 0 -13.0505,3.38793 21.415477,3.6875906 0 0 0 12.7899,3.3679 8.7363632,7.9597986 0 0 0 4.3339,4.08015 3.9124428,20.184707 0 0 0 3.6868,13.51321 3.9124428,20.184707 0 0 0 3.6934,-13.51937 8.7363632,7.9597986 0 0 0 4.2831,-3.98005 21.415477,3.6875906 0 0 0 14.0439,-3.46184 21.415477,3.6875906 0 0 0 -14.2938,-3.4734 8.7363632,7.9597986 0 0 0 -4.1174,-3.5373 3.9124428,20.184707 0 0 0 -3.6092,-12.39751 z" />
  <path
     id="path371-82"
     style="fill:#836f3d;fill-opacity:1;stroke-width:0.202589"
     d="m 1346.1187,111.10021 a 3.9124428,20.184707 0 0 0 -3.6019,12.39212 8.7363632,7.9597986 0 0 0 -4.1581,3.62816 21.415477,3.6875906 0 0 0 -13.0506,3.38793 21.415477,3.6875906 0 0 0 12.79,3.3679 8.7363632,7.9597986 0 0 0 4.3338,4.08015 3.9124428,20.184707 0 0 0 3.6868,13.51321 3.9124428,20.184707 0 0 0 3.6934,-13.51937 8.7363632,7.9597986 0 0 0 4.2831,-3.98005 21.415477,3.6875906 0 0 0 14.0439,-3.46184 21.415477,3.6875906 0 0 0 -14.2938,-3.4734 8.7363632,7.9597986 0 0 0 -4.1174,-3.5373 3.9124428,20.184707 0 0 0 -3.6092,-12.39751 z" />
  <path
     id="path371-06"
     style="fill:#836f3d;fill-opacity:1;stroke-width:0.202589"
     d="m 1421.3115,235.02917 a 3.9124428,20.184707 0 0 0 -3.6019,12.39211 8.7363632,7.9597986 0 0 0 -4.1581,3.62816 21.415477,3.6875906 0 0 0 -13.0506,3.38793 21.415477,3.6875906 0 0 0 12.79,3.36791 8.7363632,7.9597986 0 0 0 4.3338,4.08014 3.9124428,20.184707 0 0 0 3.6868,13.51321 3.9124428,20.184707 0 0 0 3.6934,-13.51937 8.7363632,7.9597986 0 0 0 4.2831,-3.98005 21.415477,3.6875906 0 0 0 14.0439,-3.46184 21.415477,3.6875906 0 0 0 -14.2938,-3.4734 8.7363632,7.9597986 0 0 0 -4.1174,-3.5373 3.9124428,20.184707 0 0 0 -3.6092,-12.3975 z" />
  <path
     id="path371-07"
     style="fill:#836f3d;fill-opacity:1;stroke-width:0.202589"
     d="m 1467.2626,16.412945 a 3.9124428,20.184707 0 0 0 -3.6019,12.39211 8.7363632,7.9597986 0 0 0 -4.1581,3.62816 21.415477,3.6875906 0 0 0 -13.0506,3.38793 21.415477,3.6875906 0 0 0 12.79,3.36791 8.7363632,7.9597986 0 0 0 4.3338,4.08014 3.9124428,20.184707 0 0 0 3.6868,13.51321 3.9124428,20.184707 0 0 0 3.6934,-13.51937 8.7363632,7.9597986 0 0 0 4.2831,-3.98005 21.415477,3.6875906 0 0 0 14.0439,-3.46184 21.415477,3.6875906 0 0 0 -14.2938,-3.4734 8.7363632,7.9597986 0 0 0 -4.1174,-3.5373 3.9124428,20.184707 0 0 0 -3.6092,-12.3975 z" />
  <path
     id="path371-2"
     style="fill:#836f3d;fill-opacity:1;stroke-width:0.202589"
     d="m 1557.7726,118.06252 a 3.9124428,20.184707 0 0 0 -3.6019,12.39211 8.7363632,7.9597986 0 0 0 -4.1581,3.62816 21.415477,3.6875906 0 0 0 -13.0506,3.38793 21.415477,3.6875906 0 0 0 12.7899,3.36791 8.7363632,7.9597986 0 0 0 4.3339,4.08014 3.9124428,20.184707 0 0 0 3.6868,13.51321 3.9124428,20.184707 0 0 0 3.6934,-13.51937 8.7363632,7.9597986 0 0 0 4.2831,-3.98005 21.415477,3.6875906 0 0 0 14.0439,-3.46184 21.415477,3.6875906 0 0 0 -14.2938,-3.4734 8.7363632,7.9597986 0 0 0 -4.1174,-3.5373 3.9124428,20.184707 0 0 0 -3.6092,-12.3975 z" />
  <path
     id="path371-9"
     style="fill:#836f3d;fill-opacity:1;stroke-width:0.202589"
     d="m 1627.3956,38.692302 a 3.9124428,20.184707 0 0 0 -3.6019,12.39211 8.7363632,7.9597986 0 0 0 -4.1581,3.62816 21.415477,3.6875906 0 0 0 -13.0506,3.38793 21.415477,3.6875906 0 0 0 12.7899,3.36791 8.7363632,7.9597986 0 0 0 4.3339,4.08014 3.9124428,20.184707 0 0 0 3.6868,13.51321 3.9124428,20.184707 0 0 0 3.6934,-13.51937 8.7363632,7.9597986 0 0 0 4.2831,-3.98005 21.415477,3.6875906 0 0 0 14.0439,-3.46184 21.415477,3.6875906 0 0 0 -14.2938,-3.4734 8.7363632,7.9597986 0 0 0 -4.1174,-3.5373 3.9124428,20.184707 0 0 0 -3.6092,-12.3975 z" />
  <path
     id="path371-81"
     style="fill:#836f3d;fill-opacity:1;stroke-width:0.202589"
     d="m 1642.7127,123.63236 a 3.9124428,20.184707 0 0 0 -3.6019,12.39211 8.7363632,7.9597986 0 0 0 -4.1581,3.62816 21.415477,3.6875906 0 0 0 -13.0506,3.38793 21.415477,3.6875906 0 0 0 12.7899,3.36791 8.7363632,7.9597986 0 0 0 4.3339,4.08014 3.9124428,20.184707 0 0 0 3.6868,13.51321 3.9124428,20.184707 0 0 0 3.6934,-13.51937 8.7363632,7.9597986 0 0 0 4.2831,-3.98005 21.415477,3.6875906 0 0 0 14.0439,-3.46184 21.415477,3.6875906 0 0 0 -14.2938,-3.4734 8.7363632,7.9597986 0 0 0 -4.1174,-3.5373 3.9124428,20.184707 0 0 0 -3.6092,-12.3975 z" />
  <path
     id="path371-16"
     style="fill:#836f3d;fill-opacity:1;stroke-width:0.202589"
     d="m 1614.8635,203.00258 a 3.9124428,20.184707 0 0 0 -3.6019,12.39211 8.7363632,7.9597986 0 0 0 -4.1581,3.62816 21.415477,3.6875906 0 0 0 -13.0506,3.38793 21.415477,3.6875906 0 0 0 12.79,3.36791 8.7363632,7.9597986 0 0 0 4.3338,4.08014 3.9124428,20.184707 0 0 0 3.6868,13.51321 3.9124428,20.184707 0 0 0 3.6934,-13.51937 8.7363632,7.9597986 0 0 0 4.2831,-3.98005 21.415477,3.6875906 0 0 0 14.0439,-3.46184 21.415477,3.6875906 0 0 0 -14.2938,-3.4734 8.7363632,7.9597986 0 0 0 -4.1174,-3.5373 3.9124428,20.184707 0 0 0 -3.6092,-12.3975 z" />
  <path
     id="path371-11"
     style="fill:#836f3d;fill-opacity:1;stroke-width:0.202589"
     d="m 1730.4376,150.0891 a 3.9124428,20.184707 0 0 0 -3.6019,12.39211 8.7363632,7.9597986 0 0 0 -4.1581,3.62816 21.415477,3.6875906 0 0 0 -13.0506,3.38793 21.415477,3.6875906 0 0 0 12.79,3.36791 8.7363632,7.9597986 0 0 0 4.3338,4.08014 3.9124428,20.184707 0 0 0 3.6868,13.51321 3.9124428,20.184707 0 0 0 3.6934,-13.51937 8.7363632,7.9597986 0 0 0 4.2831,-3.98005 21.415477,3.6875906 0 0 0 14.0439,-3.46184 21.415477,3.6875906 0 0 0 -14.2938,-3.4734 8.7363632,7.9597986 0 0 0 -4.1174,-3.5373 3.9124428,20.184707 0 0 0 -3.6092,-12.3975 z" />
  <path
     id="path371-00"
     style="fill:#836f3d;fill-opacity:1;stroke-width:0.202589"
     d="m 1774.9963,20.590321 a 3.9124428,20.184707 0 0 0 -3.6019,12.39211 8.7363632,7.9597986 0 0 0 -4.1582,3.62816 21.415477,3.6875906 0 0 0 -13.0505,3.38793 21.415477,3.6875906 0 0 0 12.7899,3.36791 8.7363632,7.9597986 0 0 0 4.3339,4.08014 3.9124428,20.184707 0 0 0 3.6868,13.51321 3.9124428,20.184707 0 0 0 3.6934,-13.51937 8.7363632,7.9597986 0 0 0 4.2831,-3.98005 21.415477,3.6875906 0 0 0 14.0439,-3.46184 21.415477,3.6875906 0 0 0 -14.2938,-3.4734 8.7363632,7.9597986 0 0 0 -4.1174,-3.5373 3.9124428,20.184707 0 0 0 -3.6092,-12.3975 z" />
  <path
     id="path371-83"
     style="fill:#836f3d;fill-opacity:1;stroke-width:0.202589"
     d="m 1808.4154,243.38392 a 3.9124428,20.184707 0 0 0 -3.6019,12.39211 8.7363632,7.9597986 0 0 0 -4.1581,3.62817 21.415477,3.6875906 0 0 0 -13.0506,3.38792 21.415477,3.6875906 0 0 0 12.7899,3.36791 8.7363632,7.9597986 0 0 0 4.3339,4.08014 3.9124428,20.184707 0 0 0 3.6868,13.51321 3.9124428,20.184707 0 0 0 3.6934,-13.51937 8.7363632,7.9597986 0 0 0 4.2831,-3.98004 21.415477,3.6875906 0 0 0 14.0439,-3.46185 21.415477,3.6875906 0 0 0 -14.2938,-3.47339 8.7363632,7.9597986 0 0 0 -4.1174,-3.53731 3.9124428,20.184707 0 0 0 -3.6092,-12.3975 z" />
</svg>
