<?xml version="1.0" encoding="UTF-8" standalone="no"?>
<!-- Created with Inkscape (http://www.inkscape.org/) -->

<svg
   version="1.1"
   id="svg2983"
   width="42.831001"
   height="40.369461"
   viewBox="0 0 42.831001 40.369462"
   xmlns="http://www.w3.org/2000/svg"
   xmlns:svg="http://www.w3.org/2000/svg">
  <defs
     id="defs2987" />
  <path
     id="path371-459"
     style="fill:#836f3d;fill-opacity:1;stroke-width:0.202589"
     d="M 20.8106,3.7765278e-7 A 3.9124428,20.184707 0 0 0 17.2087,12.39211 8.7363632,7.9597986 0 0 0 13.0505,16.02027 21.415477,3.6875906 0 0 0 -2.236064e-7,19.4082 21.415477,3.6875906 0 0 0 12.7899,22.77611 8.7363632,7.9597986 0 0 0 17.1238,26.85625 3.9124428,20.184707 0 0 0 20.8106,40.36946 3.9124428,20.184707 0 0 0 24.5039,26.85009 8.7363632,7.9597986 0 0 0 28.7871,22.87004 21.415477,3.6875906 0 0 0 42.831,19.4082 21.415477,3.6875906 0 0 0 28.5371,15.9348 8.7363632,7.9597986 0 0 0 24.4198,12.3975 3.9124428,20.184707 0 0 0 20.8106,3.7765278e-7 Z" />
</svg>
