<?xml version="1.0" encoding="UTF-8" standalone="no"?>
<!-- Created with Inkscape (http://www.inkscape.org/) -->

<svg
   version="1.1"
   id="svg32"
   width="118.72"
   height="125.76"
   viewBox="0 0 118.72 125.76"
   xmlns="http://www.w3.org/2000/svg"
   xmlns:svg="http://www.w3.org/2000/svg">
  <defs
     id="defs36" />
  <g
     id="g38"
     transform="translate(-20.32045,-21.691235)">
    <g
       id="g181"
       transform="translate(-2.0795501,0.89123484)">
      <path
         style="fill:#f8f8c6;stroke-width:0.32"
         d="m 73.28,139.69233 v -6.86766 l -1.36,-0.34602 c -6.541114,-1.66425 -10.939862,-3.59742 -16.88,-7.41844 -0.711069,-0.45739 -0.97079,-0.53301 -0.711334,-0.2071 0.353545,0.44411 -0.121204,1.02726 -3.52,4.32377 -7.389911,7.16748 -8.574196,8.22593 -8.863085,7.92127 -3.310759,-3.49147 -12.483935,-13.79764 -12.425461,-13.96014 0.04393,-0.1221 2.80596,-2.7524 6.137835,-5.84512 4.255587,-3.95012 6.134461,-5.50258 6.315101,-5.218 0.141427,0.22281 0.25935,0.27995 0.262045,0.12697 0.0026,-0.15298 -0.483066,-1.08898 -1.079466,-2.08 -2.257062,-3.7505 -4.271814,-8.48937 -5.493789,-12.92186 l -0.50726,-1.84 H 28.777293 22.4 v -9.273091 -9.273088 l 6.135444,-0.08691 6.135442,-0.08691 0.551722,-2.56576 c 1.059894,-4.929018 3.514,-11.085712 5.992762,-15.03424 l 1.004428,-1.6 -4.7747,-4.8 -4.774701,-4.8 7.72312,-7.249072 7.72312,-7.249072 4.529158,4.677846 4.529155,4.677844 3.652525,-1.824602 C 64.143926,39.216227 68.321984,37.678707 71.92,36.790909 l 1.36,-0.335578 V 28.627666 20.8 h 9.12 9.12 v 7.827666 7.827665 l 1.36,0.346023 c 7.18218,1.827356 12.93869,4.48775 18.00047,8.319004 1.44683,1.095095 2.04369,1.399744 1.99255,1.017018 -0.0718,-0.537258 11.8434,-11.984509 12.29886,-11.81584 0.27573,0.102109 11.14812,12.507472 11.14812,12.719968 0,0.08906 -2.628,2.67592 -5.84,5.748576 -3.212,3.072656 -6.00461,5.810259 -6.20581,6.083565 -0.2921,0.396787 -0.0245,1.190259 1.32825,3.937827 1.78225,3.620042 3.39869,8.260733 4.09223,11.748528 l 0.4136,2.08 5.50586,0.08755 5.50587,0.08756 V 86.087555 95.36 h -5.73729 -5.7373 l -0.50726,1.84 c -0.9071,3.29035 -2.45328,7.21731 -4.04376,10.27027 l -1.55781,2.99026 4.45695,4.52974 4.45695,4.52973 -2.46524,2.50374 c -1.35588,1.37706 -4.5981,4.53406 -7.20494,7.01555 l -4.73969,4.51181 -3.90031,-3.85264 c -2.14516,-2.11895 -4.14576,-3.93692 -4.44577,-4.03993 -0.33285,-0.11429 -1.50785,0.39115 -3.01453,1.29675 -3.92939,2.36175 -8.388752,4.14659 -13.8,5.52337 l -1.36,0.34602 v 6.86766 6.86767 H 82.4 73.28 Z M 91.307907,123.7343 c 3.730125,-0.9854 8.887593,-3.3769 12.157493,-5.63737 7.30526,-5.05012 13.18176,-13.65357 15.63953,-22.89693 0.99373,-3.737306 1.02104,-4.019712 1.02104,-10.56 0,-6.540288 -0.0273,-6.822694 -1.02104,-10.56 -2.45777,-9.243363 -8.33427,-17.846806 -15.63953,-22.896928 -3.23866,-2.23889 -8.398613,-4.640346 -12.157493,-5.658138 -2.89096,-0.782787 -3.644185,-0.852358 -9.227907,-0.852358 -5.583722,0 -6.336947,0.06957 -9.227907,0.852358 -3.75888,1.017792 -8.918829,3.419248 -12.157491,5.658138 C 53.389341,56.233194 47.512838,64.836637 45.055069,74.08 c -0.993731,3.737306 -1.021037,4.019712 -1.021037,10.56 0,6.540288 0.0273,6.822694 1.021037,10.56 3.951203,14.85998 15.191833,25.8364 29.664931,28.96765 4.302131,0.93077 12.205763,0.72429 16.587907,-0.43335 z"
         id="path195" />
      <path
         style="fill:#e7e7b8;stroke-width:0.32"
         d="m 40.279181,135.44 c -0.398039,-0.50754 -0.38672,-0.51886 0.120819,-0.12082 0.308,0.24155 0.56,0.49355 0.56,0.56 0,0.26337 -0.262781,0.0939 -0.680819,-0.43918 z M 45.12,134.56 c 0.59705,-0.616 1.157546,-1.12 1.245546,-1.12 0.088,0 -0.328496,0.504 -0.925546,1.12 -0.59705,0.616 -1.157546,1.12 -1.245546,1.12 -0.088,0 0.328496,-0.504 0.925546,-1.12 z m 68.7952,-4.88 -3.9952,-4.08 4.08,3.9952 c 3.7899,3.71113 4.2251,4.1648 3.9952,4.1648 -0.0466,0 -1.88264,-1.836 -4.08,-4.08 z m -76.836019,2.24 c -0.398039,-0.50754 -0.38672,-0.51886 0.120819,-0.12082 0.308,0.24155 0.56,0.49355 0.56,0.56 0,0.26337 -0.262781,0.0939 -0.680819,-0.43918 z M 121.12,130.56 c 0.86677,-0.88 1.64794,-1.6 1.73594,-1.6 0.088,0 -0.54917,0.72 -1.41594,1.6 -0.86677,0.88 -1.64794,1.6 -1.73594,1.6 -0.088,0 0.54917,-0.72 1.41594,-1.6 z m -68.96,-2.66013 c 0,-0.0551 0.468,-0.52307 1.04,-1.04 l 1.04,-0.93987 -0.939869,1.04 C 52.424042,127.92943 52.16,128.14709 52.16,127.89987 Z M 30.359182,124.56 c -0.398038,-0.50754 -0.38672,-0.51886 0.120818,-0.12082 0.308,0.24155 0.56,0.49355 0.56,0.56 0,0.26337 -0.26278,0.0939 -0.680818,-0.43918 z M 131.2,120.8 c 0.59705,-0.616 1.15755,-1.12 1.24555,-1.12 0.088,0 -0.3285,0.504 -0.92555,1.12 -0.59705,0.616 -1.15755,1.12 -1.24555,1.12 -0.088,0 0.3285,-0.504 0.92555,-1.12 z m -99.68,0.16 c 0.318556,-0.352 0.651194,-0.64 0.739194,-0.64 0.088,0 -0.100637,0.288 -0.419194,0.64 -0.318556,0.352 -0.651192,0.64 -0.739192,0.64 -0.088,0 0.100636,-0.288 0.419192,-0.64 z m 4.32,-3.96082 c 0,-0.0664 0.252,-0.31845 0.56,-0.56 0.507539,-0.39804 0.518858,-0.38672 0.120819,0.12082 -0.418038,0.53304 -0.680819,0.70255 -0.680819,0.43918 z m 90.87076,-3.31918 -2.07076,-2.16 2.16,2.07076 c 2.0063,1.9234 2.30628,2.24924 2.07076,2.24924 -0.0491,0 -1.02109,-0.972 -2.16,-2.16 z m -71.374981,0 -0.775779,-0.88 0.88,0.77578 c 0.822493,0.72508 1.026749,0.98422 0.775779,0.98422 -0.05732,0 -0.453318,-0.396 -0.88,-0.88 z M 108.48,113.76 c 0.41336,-0.44 0.82356,-0.8 0.91156,-0.8 0.088,0 -0.1782,0.36 -0.59156,0.8 -0.41336,0.44 -0.82356,0.8 -0.91156,0.8 -0.088,0 0.1782,-0.36 0.59156,-0.8 z M 40.8,112.32 c 0.318557,-0.352 0.651194,-0.64 0.739194,-0.64 0.088,0 -0.100637,0.288 -0.419194,0.64 -0.318557,0.352 -0.651194,0.64 -0.739194,0.64 -0.088,0 0.100637,-0.288 0.419194,-0.64 z m 14.56,-56.8 c 0.41336,-0.44 0.823562,-0.8 0.911562,-0.8 0.088,0 -0.178202,0.36 -0.591562,0.8 -0.41336,0.44 -0.823562,0.8 -0.911562,0.8 -0.088,0 0.178202,-0.36 0.591562,-0.8 z m 53.09578,-0.08 -0.77578,-0.88 0.88,0.775779 c 0.82249,0.725085 1.02675,0.984221 0.77578,0.984221 -0.0573,0 -0.45332,-0.396 -0.88,-0.88 z M 130.88,52.379869 c 0,-0.05507 0.468,-0.523072 1.04,-1.04 L 132.96,50.4 132.02013,51.44 C 131.14404,52.409427 130.88,52.627088 130.88,52.379869 Z M 34.88,45.6 c 0.41336,-0.44 0.823562,-0.8 0.911562,-0.8 0.088,0 -0.178202,0.36 -0.591562,0.8 -0.41336,0.44 -0.823562,0.8 -0.911562,0.8 -0.088,0 0.178202,-0.36 0.591562,-0.8 z m 78.88,-1.12 c 0.31856,-0.352 0.65119,-0.64 0.73919,-0.64 0.088,0 -0.10063,0.288 -0.41919,0.64 -0.31856,0.352 -0.65119,0.64 -0.73919,0.64 -0.088,0 0.10063,-0.288 0.41919,-0.64 z m 19.31918,-1.2 c -0.39804,-0.507539 -0.38672,-0.518858 0.12082,-0.120819 0.308,0.241552 0.56,0.493552 0.56,0.56 0,0.263373 -0.26278,0.09386 -0.68082,-0.439181 z M 40.32,40.48 c 0.41336,-0.44 0.823562,-0.8 0.911562,-0.8 0.088,0 -0.178202,0.36 -0.591562,0.8 -0.41336,0.44 -0.823562,0.8 -0.911562,0.8 -0.088,0 0.178202,-0.36 0.591562,-0.8 z m 90.51918,0.24 c -0.39804,-0.507539 -0.38672,-0.518858 0.12082,-0.120819 0.308,0.241552 0.56,0.493552 0.56,0.56 0,0.263373 -0.26278,0.09386 -0.68082,-0.439181 z M 118.08,40.519181 c 0,-0.06645 0.252,-0.318448 0.56,-0.56 0.50754,-0.398039 0.51886,-0.38672 0.12082,0.120819 -0.41804,0.53304 -0.68082,0.702554 -0.68082,0.439181 z M 51.830755,37.2 49.76,35.04 l 2.16,2.070755 c 2.006301,1.923408 2.306282,2.249245 2.070755,2.249245 -0.04908,0 -1.021085,-0.972 -2.16,-2.16 z M 123.04,35.84 c 0.31856,-0.352 0.65119,-0.64 0.73919,-0.64 0.088,0 -0.10063,0.288 -0.41919,0.64 -0.31856,0.352 -0.65119,0.64 -0.73919,0.64 -0.088,0 0.10063,-0.288 0.41919,-0.64 z M 45.92,35.2 c 0.318557,-0.352 0.651194,-0.64 0.739194,-0.64 0.088,0 -0.100637,0.288 -0.419194,0.64 -0.318557,0.352 -0.651194,0.64 -0.739194,0.64 -0.088,0 0.100637,-0.288 0.419194,-0.64 z"
         id="path193" />
      <path
         style="fill:#d5d5a8;stroke-width:0.32"
         d="m 43.36,136.32 c 0.318557,-0.352 0.651194,-0.64 0.739194,-0.64 0.088,0 -0.100637,0.288 -0.419194,0.64 -0.318557,0.352 -0.651194,0.64 -0.739194,0.64 -0.088,0 0.100637,-0.288 0.419194,-0.64 z m 75.36,-3.36 c 0.41336,-0.44 0.82356,-0.8 0.91156,-0.8 0.088,0 -0.1782,0.36 -0.59156,0.8 -0.41336,0.44 -0.82356,0.8 -0.91156,0.8 -0.088,0 0.1782,-0.36 0.59156,-0.8 z m -67.36,-4.32 c 0.318557,-0.352 0.651194,-0.64 0.739194,-0.64 0.088,0 -0.100637,0.288 -0.419194,0.64 -0.318557,0.352 -0.651194,0.64 -0.739194,0.64 -0.088,0 0.100637,-0.288 0.419194,-0.64 z m -18.440819,-1.2 c -0.398039,-0.50754 -0.38672,-0.51886 0.120819,-0.12082 0.308,0.24155 0.56,0.49355 0.56,0.56 0,0.26337 -0.262781,0.0939 -0.680819,-0.43918 z M 129.28,122.72 c 0.41336,-0.44 0.82356,-0.8 0.91156,-0.8 0.088,0 -0.1782,0.36 -0.59156,0.8 -0.41336,0.44 -0.82356,0.8 -0.91156,0.8 -0.088,0 0.1782,-0.36 0.59156,-0.8 z m -96.96,-2.52082 c 0,-0.0665 0.252,-0.31845 0.56,-0.56 0.507539,-0.39804 0.518858,-0.38672 0.120819,0.12082 C 32.582781,120.29304 32.32,120.46255 32.32,120.19918 Z M 130.24,117.28 c -0.77729,-0.792 -1.34125,-1.44 -1.25325,-1.44 0.088,0 0.79596,0.648 1.57325,1.44 0.77729,0.792 1.34125,1.44 1.25325,1.44 -0.088,0 -0.79596,-0.648 -1.57325,-1.44 z M 36.8,116.03918 c 0,-0.0665 0.252,-0.31845 0.56,-0.56 0.507539,-0.39804 0.518858,-0.38672 0.120819,0.12082 C 37.062781,116.13304 36.8,116.30255 36.8,116.03918 Z M 38.873997,54.32 35.68,51.04 38.96,54.233997 C 42.006477,57.200595 42.385475,57.6 42.153997,57.6 c -0.0473,0 -1.523303,-1.476 -3.28,-3.28 z M 130.08,53.12 c 0.31856,-0.352 0.65119,-0.64 0.73919,-0.64 0.088,0 -0.10063,0.288 -0.41919,0.64 -0.31856,0.352 -0.65119,0.64 -0.73919,0.64 -0.088,0 0.10063,-0.288 0.41919,-0.64 z M 35.84,44.679181 c 0,-0.06645 0.252,-0.318448 0.56,-0.56 0.507539,-0.398039 0.518858,-0.38672 0.120819,0.120819 C 36.102781,44.77304 35.84,44.942554 35.84,44.679181 Z m 78.72,-0.96 c 0,-0.06645 0.252,-0.318448 0.56,-0.56 0.50754,-0.398039 0.51886,-0.38672 0.12082,0.120819 -0.41804,0.53304 -0.68082,0.702554 -0.68082,0.439181 z M 55.36,40.8 c -0.77729,-0.792 -1.341254,-1.44 -1.253254,-1.44 0.088,0 0.795964,0.648 1.573254,1.44 0.77729,0.792 1.341254,1.44 1.253254,1.44 -0.088,0 -0.795964,-0.648 -1.573254,-1.44 z m -13.6,-1.76 c 0.318557,-0.352 0.651194,-0.64 0.739194,-0.64 0.088,0 -0.100637,0.288 -0.419194,0.64 -0.318557,0.352 -0.651194,0.64 -0.739194,0.64 -0.088,0 0.100637,-0.288 0.419194,-0.64 z m 77.28,0.519181 c 0,-0.06645 0.252,-0.318448 0.56,-0.56 0.50754,-0.398039 0.51886,-0.38672 0.12082,0.120819 -0.41804,0.53304 -0.68082,0.702554 -0.68082,0.439181 z M 47.2,33.92 c 0.318557,-0.352 0.651194,-0.64 0.739194,-0.64 0.088,0 -0.100637,0.288 -0.419194,0.64 -0.318557,0.352 -0.651194,0.64 -0.739194,0.64 -0.088,0 0.100637,-0.288 0.419194,-0.64 z"
         id="path191" />
      <path
         style="fill:#c5c59a;stroke-width:0.32"
         d="m 50.08,129.92 c 0.318557,-0.352 0.651194,-0.64 0.739194,-0.64 0.088,0 -0.100637,0.288 -0.419194,0.64 -0.318557,0.352 -0.651194,0.64 -0.739194,0.64 -0.088,0 0.100637,-0.288 0.419194,-0.64 z m 77.6,-5.6 c 0.41336,-0.44 0.82356,-0.8 0.91156,-0.8 0.088,0 -0.1782,0.36 -0.59156,0.8 -0.41336,0.44 -0.82356,0.8 -0.91156,0.8 -0.088,0 0.1782,-0.36 0.59156,-0.8 z M 128.8,54.4 c 0.31856,-0.352 0.65119,-0.64 0.73919,-0.64 0.088,0 -0.10063,0.288 -0.41919,0.64 -0.31856,0.352 -0.65119,0.64 -0.73919,0.64 -0.088,0 0.10063,-0.288 0.41919,-0.64 z M 34.067971,49.52 32.48,47.84 l 1.68,1.587971 c 0.924,0.873383 1.68,1.629383 1.68,1.68 0,0.238781 -0.296458,-0.02688 -1.772029,-1.587971 z M 36.8,43.719181 c 0,-0.06645 0.252,-0.318448 0.56,-0.56 0.507539,-0.398039 0.518858,-0.38672 0.120819,0.120819 C 37.062781,43.81304 36.8,43.982554 36.8,43.719181 Z"
         id="path189" />
      <path
         style="fill:#b1b189;stroke-width:0.32"
         d="m 48.8,131.2 c 0.318557,-0.352 0.651194,-0.64 0.739194,-0.64 0.088,0 -0.100637,0.288 -0.419194,0.64 -0.318557,0.352 -0.651194,0.64 -0.739194,0.64 -0.088,0 0.100637,-0.288 0.419194,-0.64 z m 76.96,-4.96 c 0.59705,-0.616 1.15755,-1.12 1.24555,-1.12 0.088,0 -0.3285,0.504 -0.92555,1.12 -0.59705,0.616 -1.15755,1.12 -1.24555,1.12 -0.088,0 0.3285,-0.504 0.92555,-1.12 z m -96.64,-3.16082 c 0,-0.0664 0.252,-0.31845 0.56,-0.56 0.507538,-0.39804 0.518856,-0.38672 0.120818,0.12082 C 29.38278,123.17304 29.12,123.34255 29.12,123.07918 Z M 55.68,113.76 c -0.77729,-0.792 -1.341254,-1.44 -1.253254,-1.44 0.088,0 0.795964,0.648 1.573254,1.44 0.77729,0.792 1.341254,1.44 1.253254,1.44 -0.088,0 -0.795964,-0.648 -1.573254,-1.44 z m 52.46663,0.08 c 1.32606,-1.41286 1.61337,-1.66691 1.61337,-1.42663 0,0.0514 -0.684,0.73536 -1.52,1.52 L 106.72,115.36 Z M 38.4,114.43918 c 0,-0.0664 0.252,-0.31845 0.56,-0.56 0.507539,-0.39804 0.518858,-0.38672 0.120819,0.12082 C 38.662781,114.53304 38.4,114.70255 38.4,114.43918 Z m 5.465264,-26.625846 c 0.01536,-0.372784 0.09118,-0.448608 0.193331,-0.193334 0.09244,0.230998 0.08107,0.507002 -0.02525,0.613334 -0.106336,0.106333 -0.181965,-0.08267 -0.16807,-0.42 z m 76.159996,0 c 0.0154,-0.372784 0.0912,-0.448608 0.19334,-0.193334 0.0924,0.230998 0.0811,0.507002 -0.0252,0.613334 -0.10634,0.106333 -0.18197,-0.08267 -0.16807,-0.42 z m -76.159996,-6.4 c 0.01536,-0.372784 0.09118,-0.448608 0.193331,-0.193334 0.09244,0.230998 0.08107,0.506998 -0.02525,0.613334 -0.106336,0.106333 -0.181965,-0.08267 -0.16807,-0.42 z m 76.159996,0 c 0.0154,-0.372784 0.0912,-0.448608 0.19334,-0.193334 0.0924,0.230998 0.0811,0.506998 -0.0252,0.613334 -0.10634,0.106333 -0.18197,-0.08267 -0.16807,-0.42 z M 55.666627,55.6 C 56.992694,54.187139 57.28,53.933091 57.28,54.173373 c 0,0.05136 -0.684,0.735357 -1.52,1.52 L 54.24,57.12 Z M 108.16,55.52 c -0.77729,-0.792 -1.34125,-1.44 -1.25325,-1.44 0.088,0 0.79596,0.648 1.57325,1.44 0.77729,0.792 1.34125,1.44 1.25325,1.44 -0.088,0 -0.79596,-0.648 -1.57325,-1.44 z m 19.2,0.32 c 0.41336,-0.44 0.82356,-0.8 0.91156,-0.8 0.088,0 -0.1782,0.36 -0.59156,0.8 -0.41336,0.44 -0.82356,0.8 -0.91156,0.8 -0.088,0 0.1782,-0.36 0.59156,-0.8 z m 8,-7.68 c 0.41336,-0.44 0.82356,-0.8 0.91156,-0.8 0.088,0 -0.1782,0.36 -0.59156,0.8 -0.41336,0.44 -0.82356,0.8 -0.91156,0.8 -0.088,0 0.1782,-0.36 0.59156,-0.8 z m -97.6,-5.400819 c 0,-0.06645 0.252,-0.318448 0.56,-0.56 0.507539,-0.398039 0.518858,-0.38672 0.120819,0.120819 C 38.022781,42.85304 37.76,43.022554 37.76,42.759181 Z m 82.88,-4.8 c 0,-0.06645 0.252,-0.318448 0.56,-0.56 0.50754,-0.398039 0.51886,-0.38672 0.12082,0.120819 -0.41804,0.53304 -0.68082,0.702554 -0.68082,0.439181 z m -77.44,-0.32 c 0,-0.06645 0.252,-0.318448 0.56,-0.56 C 44.267539,36.681142 44.278858,36.692461 43.880819,37.2 43.462781,37.73304 43.2,37.902554 43.2,37.639181 Z"
         id="path187" />
      <path
         style="fill:#93926c;stroke-width:0.32"
         d="m 40.919181,136.4 c -0.398039,-0.50754 -0.38672,-0.51886 0.120819,-0.12082 0.308,0.24155 0.56,0.49355 0.56,0.56 0,0.26337 -0.262781,0.0939 -0.680819,-0.43918 z M 47.36,132.64 c 0.41336,-0.44 0.823562,-0.8 0.911562,-0.8 0.088,0 -0.178202,0.36 -0.591562,0.8 -0.41336,0.44 -0.823562,0.8 -0.911562,0.8 -0.088,0 0.178202,-0.36 0.591562,-0.8 z m 75.52,-3.46013 c 0,-0.0551 0.468,-0.52307 1.04,-1.04 l 1.04,-0.93987 -0.93987,1.04 c -0.87609,0.96943 -1.14013,1.18709 -1.14013,0.93987 z M 79.62,124.5814 c 0.230998,-0.0924 0.506998,-0.0811 0.613334,0.0252 0.106333,0.10634 -0.08267,0.18197 -0.42,0.16807 -0.372784,-0.0154 -0.448608,-0.0912 -0.193334,-0.19333 z m 4.48,0 c 0.230998,-0.0924 0.507002,-0.0811 0.613334,0.0252 0.106333,0.10634 -0.08267,0.18197 -0.42,0.16807 -0.372784,-0.0154 -0.448608,-0.0912 -0.193334,-0.19333 z m -54.02,-2.46222 c 0,-0.0665 0.252,-0.31845 0.56,-0.56 0.507538,-0.39804 0.518856,-0.38672 0.120818,0.12082 C 30.34278,122.21304 30.08,122.38255 30.08,122.11918 Z m 4.48,-4.16 c 0,-0.0665 0.252,-0.31845 0.56,-0.56 0.507539,-0.39804 0.518858,-0.38672 0.120819,0.12082 -0.418038,0.53304 -0.680819,0.70255 -0.680819,0.43918 z m 4.8,-4.48 c 0,-0.0665 0.252,-0.31845 0.56,-0.56 0.507539,-0.39804 0.518858,-0.38672 0.120819,0.12082 -0.418038,0.53304 -0.680819,0.70255 -0.680819,0.43918 z m 84.84455,-2.44983 c -0.4155,-0.34614 -0.61782,-0.62935 -0.4496,-0.62935 0.16822,0 0.56649,0.288 0.88505,0.64 0.7318,0.80863 0.54242,0.804 -0.43545,-0.0107 z M 125.76,57.44 c 0.41336,-0.44 0.82356,-0.8 0.91156,-0.8 0.088,0 -0.1782,0.36 -0.59156,0.8 -0.41336,0.44 -0.82356,0.8 -0.91156,0.8 -0.088,0 0.1782,-0.36 0.59156,-0.8 z m 8,-7.68 c 0.41336,-0.44 0.82356,-0.8 0.91156,-0.8 0.088,0 -0.1782,0.36 -0.59156,0.8 -0.41336,0.44 -0.82356,0.8 -0.91156,0.8 -0.088,0 0.1782,-0.36 0.59156,-0.8 z M 33.44,46.72 c 0.318557,-0.352 0.651194,-0.64 0.739194,-0.64 0.088,0 -0.100637,0.288 -0.419194,0.64 -0.318557,0.352 -0.651194,0.64 -0.739194,0.64 -0.088,0 0.100637,-0.288 0.419194,-0.64 z m 78.88,-1.080819 c 0,-0.06645 0.252,-0.318448 0.56,-0.56 0.50754,-0.398039 0.51886,-0.38672 0.12082,0.120819 -0.41804,0.53304 -0.68082,0.702554 -0.68082,0.439181 z m -32.7,-1.057776 c 0.230998,-0.09244 0.506998,-0.08107 0.613334,0.02525 0.106333,0.106333 -0.08267,0.181965 -0.42,0.16807 C 79.44055,44.759363 79.364726,44.683542 79.62,44.581392 Z m 4.48,0 c 0.230998,-0.09244 0.507002,-0.08107 0.613334,0.02525 0.106333,0.106333 -0.08267,0.181965 -0.42,0.16807 C 83.92055,44.759363 83.844726,44.683542 84.1,44.581392 Z M 39.2,41.28 c 0.318557,-0.352 0.651194,-0.64 0.739194,-0.64 0.088,0 -0.100637,0.288 -0.419194,0.64 -0.318557,0.352 -0.651194,0.64 -0.739194,0.64 -0.088,0 0.100637,-0.288 0.419194,-0.64 z m 78.08,-0.32 c 0.31856,-0.352 0.65119,-0.64 0.73919,-0.64 0.088,0 -0.10063,0.288 -0.41919,0.64 -0.31856,0.352 -0.65119,0.64 -0.73919,0.64 -0.088,0 0.10063,-0.288 0.41919,-0.64 z m 4.32,-3.960819 c 0,-0.06645 0.252,-0.318448 0.56,-0.56 0.50754,-0.398039 0.51886,-0.38672 0.12082,0.120819 C 121.86278,37.09304 121.6,37.262554 121.6,36.999181 Z M 44.64,36.16 c 0.318557,-0.352 0.651194,-0.64 0.739194,-0.64 0.088,0 -0.100637,0.288 -0.419194,0.64 -0.318557,0.352 -0.651194,0.64 -0.739194,0.64 -0.088,0 0.100637,-0.288 0.419194,-0.64 z m 4.459869,-2 L 48.16,33.12 49.2,34.059869 C 50.169427,34.935958 50.387088,35.2 50.139869,35.2 c -0.05507,0 -0.523072,-0.468 -1.04,-1.04 z"
         id="path185" />
      <path
         style="fill:#797853;stroke-width:0.32"
         d="m 45.76,134.24 c 0.41336,-0.44 0.823562,-0.8 0.911562,-0.8 0.088,0 -0.178202,0.36 -0.591562,0.8 -0.41336,0.44 -0.823562,0.8 -0.911562,0.8 -0.088,0 0.178202,-0.36 0.591562,-0.8 z m 68.954,-3.44 -3.194,-3.28 3.28,3.194 c 3.04648,2.9666 3.42548,3.366 3.194,3.366 -0.0473,0 -1.52331,-1.476 -3.28,-3.28 z m 6.886,-0.4 c 0.59705,-0.616 1.15755,-1.12 1.24555,-1.12 0.088,0 -0.3285,0.504 -0.92555,1.12 -0.59705,0.616 -1.15755,1.12 -1.24555,1.12 -0.088,0 0.3285,-0.504 0.92555,-1.12 z m -68.16,-3.52 c 0.41336,-0.44 0.823562,-0.8 0.911562,-0.8 0.088,0 -0.178202,0.36 -0.591562,0.8 -0.41336,0.44 -0.823562,0.8 -0.911562,0.8 -0.088,0 0.178202,-0.36 0.591562,-0.8 z m 78.4,-6.4 c 0.41336,-0.44 0.82356,-0.8 0.91156,-0.8 0.088,0 -0.1782,0.36 -0.59156,0.8 -0.41336,0.44 -0.82356,0.8 -0.91156,0.8 -0.088,0 0.1782,-0.36 0.59156,-0.8 z m -96.32,-3.48082 c 0,-0.0664 0.252,-0.31845 0.56,-0.56 0.507539,-0.39804 0.518858,-0.38672 0.120819,0.12082 C 35.782781,117.09304 35.52,117.26255 35.52,116.99918 Z M 126.4,113.12 c -0.77729,-0.792 -1.34125,-1.44 -1.25325,-1.44 0.088,0 0.79596,0.648 1.57325,1.44 0.77729,0.792 1.34125,1.44 1.25325,1.44 -0.088,0 -0.79596,-0.648 -1.57325,-1.44 z m 5.76,-61.76 c 0.41336,-0.44 0.82356,-0.8 0.91156,-0.8 0.088,0 -0.1782,0.36 -0.59156,0.8 -0.41336,0.44 -0.82356,0.8 -0.91156,0.8 -0.088,0 0.1782,-0.36 0.59156,-0.8 z M 34.24,45.959181 c 0,-0.06645 0.252,-0.318448 0.56,-0.56 0.507539,-0.398039 0.518858,-0.38672 0.120819,0.120819 C 34.502781,46.05304 34.24,46.222554 34.24,45.959181 Z m 5.76,-5.44 c 0,-0.06645 0.252,-0.318448 0.56,-0.56 0.507539,-0.398039 0.518858,-0.38672 0.120819,0.120819 C 40.262781,40.61304 40,40.782554 40,40.519181 Z M 51.52,36.64 c -0.77729,-0.792 -1.341254,-1.44 -1.253254,-1.44 0.088,0 0.795964,0.648 1.573254,1.44 0.77729,0.792 1.341254,1.44 1.253254,1.44 -0.088,0 -0.795964,-0.648 -1.573254,-1.44 z"
         id="path183" />
    </g>
  </g>
</svg>
